<?xml version="1.0" encoding="UTF-8"?>
<svg xmlns="http://www.w3.org/2000/svg" width="1380" height="860" viewBox="0 0 1380 860">
<defs><style>text{font-family:Arial, sans-serif;}</style></defs>
<rect width="1380" height="860" fill="#f8fafc"/>
<rect x="0" y="0" width="1380" height="54" fill="#1e293b"/>
<text x="24" y="22" font-size="16" font-weight="bold" fill="#f1f5f9">E-Commerce Database Schema</text>
<text x="24" y="42" font-size="11" fill="#94a3b8">SQLite (better-sqlite3)  ·  9 tables  ·  Generated with TypeORM  ·  synchronize: true</text>
<text x="1356" y="32" font-size="10" fill="#475569" text-anchor="end">⚠ Table name "catogory" contains a typo in the actual DB</text>
<path d="M 1060 176 L 1075 176 L 1075 128 L 1090 128" fill="none" stroke="#ef4444" stroke-width="1.5" opacity="0.55" stroke-dasharray="5 3"/>
<polygon points="1090,128 1098,124 1098,132" fill="#ef4444" opacity="0.55"/>
<rect x="1055" y="105" width="40" height="14" rx="3" fill="#f8fafc"/>
<text x="1075" y="116" font-size="9" font-weight="bold" fill="#ef4444" text-anchor="middle">N:1</text>
<path d="M 800 176 L 815 176 L 815 128 L 830 128" fill="none" stroke="#ef4444" stroke-width="1.5" opacity="0.55" stroke-dasharray="5 3"/>
<polygon points="830,128 838,124 838,132" fill="#ef4444" opacity="0.55"/>
<rect x="795" y="105" width="40" height="14" rx="3" fill="#f8fafc"/>
<text x="815" y="116" font-size="9" font-weight="bold" fill="#ef4444" text-anchor="middle">N:1</text>
<path d="M 540 296 L 555 296 L 555 128 L 570 128" fill="none" stroke="#ef4444" stroke-width="1.5" opacity="0.55" stroke-dasharray="5 3"/>
<polygon points="570,128 578,124 578,132" fill="#ef4444" opacity="0.55"/>
<rect x="535" y="105" width="40" height="14" rx="3" fill="#f8fafc"/>
<text x="555" y="116" font-size="9" font-weight="bold" fill="#ef4444" text-anchor="middle">N:1</text>
<path d="M 570 526 L 420 526 L 420 428 L 270 428" fill="none" stroke="#8b5cf6" stroke-width="1.5" opacity="0.55" />
<polygon points="270,428 262,424 262,432" fill="#8b5cf6" opacity="0.55"/>
<rect x="400" y="405" width="40" height="14" rx="3" fill="#f8fafc"/>
<text x="420" y="416" font-size="9" font-weight="bold" fill="#8b5cf6" text-anchor="middle">N:1</text>
<path d="M 570 550 L 554 550 L 554 128 L 540 128" fill="none" stroke="#8b5cf6" stroke-width="1.5" opacity="0.55" />
<polygon points="540,128 532,124 532,132" fill="#8b5cf6" opacity="0.55"/>
<rect x="504" y="330" width="40" height="14" rx="3" fill="#f8fafc"/>
<text x="524" y="341" font-size="9" font-weight="bold" fill="#8b5cf6" text-anchor="middle">N:1</text>
<path d="M 310 684 L 155 684 L 155 584" fill="none" stroke="#ef4444" stroke-width="1.5" opacity="0.55" stroke-dasharray="5 3"/>
<polygon points="155,584 151,576 159,576" fill="#ef4444" opacity="0.55"/>
<rect x="159" y="625" width="40" height="14" rx="3" fill="#f8fafc"/>
<text x="179" y="636" font-size="9" font-weight="bold" fill="#ef4444" text-anchor="middle">N:1</text>
<path d="M 570 740 L 555 740 L 555 588 L 540 588" fill="none" stroke="#8b5cf6" stroke-width="1.5" opacity="0.55" />
<polygon points="540,588 532,584 532,592" fill="#8b5cf6" opacity="0.55"/>
<rect x="535" y="565" width="40" height="14" rx="3" fill="#f8fafc"/>
<text x="555" y="576" font-size="9" font-weight="bold" fill="#8b5cf6" text-anchor="middle">N:1</text>
<path d="M 685 620 L 685 348 L 425 348 L 425 308" fill="none" stroke="#ef4444" stroke-width="1.5" opacity="0.55" stroke-dasharray="5 3"/>
<polygon points="425,308 421,300 429,300" fill="#ef4444" opacity="0.55"/>
<rect x="433" y="319" width="40" height="14" rx="3" fill="#f8fafc"/>
<text x="453" y="330" font-size="9" font-weight="bold" fill="#ef4444" text-anchor="middle">N:1</text>
<path d="M 155 632 L 155 632 L 155 584" fill="none" stroke="#8b5cf6" stroke-width="1.5" opacity="0.55" />
<polygon points="155,584 151,576 159,576" fill="#8b5cf6" opacity="0.55"/>
<rect x="1093" y="83" width="230" height="84" rx="10" fill="#cbd5e1" opacity="0.35"/>
<rect x="1090" y="80" width="230" height="84" rx="10" fill="#ffffff" stroke="#94a3b8" stroke-width="1"/>
<path d="M 1100 80 L 1310 80 Q 1320 80 1320 90 L 1320 116 L 1090 116 L 1090 90 Q 1090 80 1100 80 Z" fill="#dbeafe"/>
<text x="1102" y="104" font-size="13" font-weight="bold" fill="#1e293b">product_type</text>
<line x1="1090" y1="116" x2="1320" y2="116" stroke="#94a3b8" stroke-width="0.8"/>
<rect x="1091" y="116" width="228" height="24" fill="#fefce8"/>
<text x="1102" y="133" font-size="12" fill="#1e293b">id</text>
<text x="1310" y="133" font-size="9" fill="#94a3b8" text-anchor="end">INTEGER</text>
<rect x="1122" y="120" width="24" height="15" rx="3" fill="#fef3c7"/>
<text x="1134" y="131" font-size="9" font-weight="bold" fill="#d97706" text-anchor="middle">PK</text>
<line x1="1091" y1="140" x2="1319" y2="140" stroke="#94a3b8" stroke-width="0.3" opacity="0.4"/>
<rect x="1091" y="140" width="228" height="24" fill="#f8fafc"/>
<text x="1102" y="157" font-size="12" fill="#1e293b">name</text>
<text x="1310" y="157" font-size="9" fill="#94a3b8" text-anchor="end">VARCHAR</text>
<rect x="1136" y="144" width="24" height="15" rx="3" fill="#ecfdf5"/>
<text x="1148" y="155" font-size="9" font-weight="bold" fill="#059669" text-anchor="middle">UK</text>
<path d="M 1090 154 Q 1090 164 1100 164 L 1310 164 Q 1320 164 1320 154" fill="none" stroke="#94a3b8" stroke-width="1"/>
<rect x="833" y="83" width="230" height="108" rx="10" fill="#cbd5e1" opacity="0.35"/>
<rect x="830" y="80" width="230" height="108" rx="10" fill="#ffffff" stroke="#94a3b8" stroke-width="1"/>
<path d="M 840 80 L 1050 80 Q 1060 80 1060 90 L 1060 116 L 830 116 L 830 90 Q 830 80 840 80 Z" fill="#dbeafe"/>
<text x="842" y="104" font-size="13" font-weight="bold" fill="#1e293b">catogory ⚠</text>
<line x1="830" y1="116" x2="1060" y2="116" stroke="#94a3b8" stroke-width="0.8"/>
<rect x="831" y="116" width="228" height="24" fill="#fefce8"/>
<text x="842" y="133" font-size="12" fill="#1e293b">id</text>
<text x="1050" y="133" font-size="9" fill="#94a3b8" text-anchor="end">INTEGER</text>
<rect x="862" y="120" width="24" height="15" rx="3" fill="#fef3c7"/>
<text x="874" y="131" font-size="9" font-weight="bold" fill="#d97706" text-anchor="middle">PK</text>
<line x1="831" y1="140" x2="1059" y2="140" stroke="#94a3b8" stroke-width="0.3" opacity="0.4"/>
<rect x="831" y="140" width="228" height="24" fill="#f8fafc"/>
<text x="842" y="157" font-size="12" fill="#1e293b">name</text>
<text x="1050" y="157" font-size="9" fill="#94a3b8" text-anchor="end">VARCHAR</text>
<rect x="876" y="144" width="24" height="15" rx="3" fill="#ecfdf5"/>
<text x="888" y="155" font-size="9" font-weight="bold" fill="#059669" text-anchor="middle">UK</text>
<line x1="831" y1="164" x2="1059" y2="164" stroke="#94a3b8" stroke-width="0.3" opacity="0.4"/>
<text x="842" y="181" font-size="12" fill="#1e293b">type_id</text>
<text x="1050" y="181" font-size="9" fill="#94a3b8" text-anchor="end">INTEGER</text>
<rect x="897" y="168" width="24" height="15" rx="3" fill="#ede9fe"/>
<text x="909" y="179" font-size="9" font-weight="bold" fill="#7c3aed" text-anchor="middle">FK</text>
<path d="M 830 178 Q 830 188 840 188 L 1050 188 Q 1060 188 1060 178" fill="none" stroke="#94a3b8" stroke-width="1"/>
<rect x="573" y="83" width="230" height="108" rx="10" fill="#cbd5e1" opacity="0.35"/>
<rect x="570" y="80" width="230" height="108" rx="10" fill="#ffffff" stroke="#94a3b8" stroke-width="1"/>
<path d="M 580 80 L 790 80 Q 800 80 800 90 L 800 116 L 570 116 L 570 90 Q 570 80 580 80 Z" fill="#dbeafe"/>
<text x="582" y="104" font-size="13" font-weight="bold" fill="#1e293b">sub_category</text>
<line x1="570" y1="116" x2="800" y2="116" stroke="#94a3b8" stroke-width="0.8"/>
<rect x="571" y="116" width="228" height="24" fill="#fefce8"/>
<text x="582" y="133" font-size="12" fill="#1e293b">id</text>
<text x="790" y="133" font-size="9" fill="#94a3b8" text-anchor="end">INTEGER</text>
<rect x="602" y="120" width="24" height="15" rx="3" fill="#fef3c7"/>
<text x="614" y="131" font-size="9" font-weight="bold" fill="#d97706" text-anchor="middle">PK</text>
<line x1="571" y1="140" x2="799" y2="140" stroke="#94a3b8" stroke-width="0.3" opacity="0.4"/>
<rect x="571" y="140" width="228" height="24" fill="#f8fafc"/>
<text x="582" y="157" font-size="12" fill="#1e293b">name</text>
<text x="790" y="157" font-size="9" fill="#94a3b8" text-anchor="end">VARCHAR</text>
<rect x="616" y="144" width="24" height="15" rx="3" fill="#ecfdf5"/>
<text x="628" y="155" font-size="9" font-weight="bold" fill="#059669" text-anchor="middle">UK</text>
<line x1="571" y1="164" x2="799" y2="164" stroke="#94a3b8" stroke-width="0.3" opacity="0.4"/>
<text x="582" y="181" font-size="12" fill="#1e293b">category_id</text>
<text x="790" y="181" font-size="9" fill="#94a3b8" text-anchor="end">INTEGER</text>
<rect x="665" y="168" width="24" height="15" rx="3" fill="#ede9fe"/>
<text x="677" y="179" font-size="9" font-weight="bold" fill="#7c3aed" text-anchor="middle">FK</text>
<path d="M 570 178 Q 570 188 580 188 L 790 188 Q 800 188 800 178" fill="none" stroke="#94a3b8" stroke-width="1"/>
<rect x="313" y="83" width="230" height="228" rx="10" fill="#cbd5e1" opacity="0.35"/>
<rect x="310" y="80" width="230" height="228" rx="10" fill="#ffffff" stroke="#94a3b8" stroke-width="1"/>
<path d="M 320 80 L 530 80 Q 540 80 540 90 L 540 116 L 310 116 L 310 90 Q 310 80 320 80 Z" fill="#dbeafe"/>
<text x="322" y="104" font-size="13" font-weight="bold" fill="#1e293b">product</text>
<line x1="310" y1="116" x2="540" y2="116" stroke="#94a3b8" stroke-width="0.8"/>
<rect x="311" y="116" width="228" height="24" fill="#fefce8"/>
<text x="322" y="133" font-size="12" fill="#1e293b">id</text>
<text x="530" y="133" font-size="9" fill="#94a3b8" text-anchor="end">INTEGER</text>
<rect x="342" y="120" width="24" height="15" rx="3" fill="#fef3c7"/>
<text x="354" y="131" font-size="9" font-weight="bold" fill="#d97706" text-anchor="middle">PK</text>
<line x1="311" y1="140" x2="539" y2="140" stroke="#94a3b8" stroke-width="0.3" opacity="0.4"/>
<rect x="311" y="140" width="228" height="24" fill="#f8fafc"/>
<text x="322" y="157" font-size="12" fill="#1e293b">name</text>
<text x="530" y="157" font-size="9" fill="#94a3b8" text-anchor="end">VARCHAR</text>
<line x1="311" y1="164" x2="539" y2="164" stroke="#94a3b8" stroke-width="0.3" opacity="0.4"/>
<text x="322" y="181" font-size="12" fill="#1e293b">description</text>
<text x="530" y="181" font-size="9" fill="#94a3b8" text-anchor="end">TEXT</text>
<line x1="311" y1="188" x2="539" y2="188" stroke="#94a3b8" stroke-width="0.3" opacity="0.4"/>
<rect x="311" y="188" width="228" height="24" fill="#f8fafc"/>
<text x="322" y="205" font-size="12" fill="#1e293b">price</text>
<text x="530" y="205" font-size="9" fill="#94a3b8" text-anchor="end">DECIMAL(10,2)</text>
<line x1="311" y1="212" x2="539" y2="212" stroke="#94a3b8" stroke-width="0.3" opacity="0.4"/>
<text x="322" y="229" font-size="12" fill="#1e293b">stock</text>
<text x="530" y="229" font-size="9" fill="#94a3b8" text-anchor="end">INTEGER</text>
<line x1="311" y1="236" x2="539" y2="236" stroke="#94a3b8" stroke-width="0.3" opacity="0.4"/>
<rect x="311" y="236" width="228" height="24" fill="#f8fafc"/>
<text x="322" y="253" font-size="12" fill="#1e293b">image_path</text>
<text x="530" y="253" font-size="9" fill="#94a3b8" text-anchor="end">TEXT</text>
<line x1="311" y1="260" x2="539" y2="260" stroke="#94a3b8" stroke-width="0.3" opacity="0.4"/>
<text x="322" y="277" font-size="12" fill="#1e293b">created_at</text>
<text x="530" y="277" font-size="9" fill="#94a3b8" text-anchor="end">DATETIME</text>
<line x1="311" y1="284" x2="539" y2="284" stroke="#94a3b8" stroke-width="0.3" opacity="0.4"/>
<rect x="311" y="284" width="228" height="24" fill="#f8fafc"/>
<text x="322" y="301" font-size="12" fill="#1e293b">sub_category_id</text>
<text x="530" y="301" font-size="9" fill="#94a3b8" text-anchor="end">INTEGER</text>
<rect x="433" y="288" width="24" height="15" rx="3" fill="#ede9fe"/>
<text x="445" y="299" font-size="9" font-weight="bold" fill="#7c3aed" text-anchor="middle">FK</text>
<path d="M 310 298 Q 310 308 320 308 L 530 308 Q 540 308 540 298" fill="none" stroke="#94a3b8" stroke-width="1"/>
<rect x="43" y="383" width="230" height="204" rx="10" fill="#cbd5e1" opacity="0.35"/>
<rect x="40" y="380" width="230" height="204" rx="10" fill="#ffffff" stroke="#94a3b8" stroke-width="1"/>
<path d="M 50 380 L 260 380 Q 270 380 270 390 L 270 416 L 40 416 L 40 390 Q 40 380 50 380 Z" fill="#fef9c3"/>
<text x="52" y="404" font-size="13" font-weight="bold" fill="#1e293b">user</text>
<line x1="40" y1="416" x2="270" y2="416" stroke="#94a3b8" stroke-width="0.8"/>
<rect x="41" y="416" width="228" height="24" fill="#fefce8"/>
<text x="52" y="433" font-size="12" fill="#1e293b">id</text>
<text x="260" y="433" font-size="9" fill="#94a3b8" text-anchor="end">INTEGER</text>
<rect x="72" y="420" width="24" height="15" rx="3" fill="#fef3c7"/>
<text x="84" y="431" font-size="9" font-weight="bold" fill="#d97706" text-anchor="middle">PK</text>
<line x1="41" y1="440" x2="269" y2="440" stroke="#94a3b8" stroke-width="0.3" opacity="0.4"/>
<rect x="41" y="440" width="228" height="24" fill="#f8fafc"/>
<text x="52" y="457" font-size="12" fill="#1e293b">name</text>
<text x="260" y="457" font-size="9" fill="#94a3b8" text-anchor="end">VARCHAR</text>
<line x1="41" y1="464" x2="269" y2="464" stroke="#94a3b8" stroke-width="0.3" opacity="0.4"/>
<text x="52" y="481" font-size="12" fill="#1e293b">email</text>
<text x="260" y="481" font-size="9" fill="#94a3b8" text-anchor="end">VARCHAR</text>
<rect x="93" y="468" width="24" height="15" rx="3" fill="#ecfdf5"/>
<text x="105" y="479" font-size="9" font-weight="bold" fill="#059669" text-anchor="middle">UK</text>
<line x1="41" y1="488" x2="269" y2="488" stroke="#94a3b8" stroke-width="0.3" opacity="0.4"/>
<rect x="41" y="488" width="228" height="24" fill="#f8fafc"/>
<text x="52" y="505" font-size="12" fill="#1e293b">password_hash</text>
<text x="260" y="505" font-size="9" fill="#94a3b8" text-anchor="end">VARCHAR</text>
<line x1="41" y1="512" x2="269" y2="512" stroke="#94a3b8" stroke-width="0.3" opacity="0.4"/>
<text x="52" y="529" font-size="12" fill="#1e293b">role</text>
<text x="260" y="529" font-size="9" fill="#94a3b8" text-anchor="end">VARCHAR</text>
<line x1="41" y1="536" x2="269" y2="536" stroke="#94a3b8" stroke-width="0.3" opacity="0.4"/>
<rect x="41" y="536" width="228" height="24" fill="#f8fafc"/>
<text x="52" y="553" font-size="12" fill="#1e293b">is_locked</text>
<text x="260" y="553" font-size="9" fill="#94a3b8" text-anchor="end">BOOLEAN</text>
<line x1="41" y1="560" x2="269" y2="560" stroke="#94a3b8" stroke-width="0.3" opacity="0.4"/>
<text x="52" y="577" font-size="12" fill="#1e293b">created_at</text>
<text x="260" y="577" font-size="9" fill="#94a3b8" text-anchor="end">DATETIME</text>
<path d="M 40 574 Q 40 584 50 584 L 260 584 Q 270 584 270 574" fill="none" stroke="#94a3b8" stroke-width="1"/>
<rect x="43" y="635" width="230" height="180" rx="10" fill="#cbd5e1" opacity="0.35"/>
<rect x="40" y="632" width="230" height="180" rx="10" fill="#ffffff" stroke="#94a3b8" stroke-width="1"/>
<path d="M 50 632 L 260 632 Q 270 632 270 642 L 270 668 L 40 668 L 40 642 Q 40 632 50 632 Z" fill="#fef9c3"/>
<text x="52" y="656" font-size="13" font-weight="bold" fill="#1e293b">reset_code</text>
<line x1="40" y1="668" x2="270" y2="668" stroke="#94a3b8" stroke-width="0.8"/>
<rect x="41" y="668" width="228" height="24" fill="#fefce8"/>
<text x="52" y="685" font-size="12" fill="#1e293b">id</text>
<text x="260" y="685" font-size="9" fill="#94a3b8" text-anchor="end">INTEGER</text>
<rect x="72" y="672" width="24" height="15" rx="3" fill="#fef3c7"/>
<text x="84" y="683" font-size="9" font-weight="bold" fill="#d97706" text-anchor="middle">PK</text>
<line x1="41" y1="692" x2="269" y2="692" stroke="#94a3b8" stroke-width="0.3" opacity="0.4"/>
<rect x="41" y="692" width="228" height="24" fill="#f8fafc"/>
<text x="52" y="709" font-size="12" fill="#1e293b">code</text>
<text x="260" y="709" font-size="9" fill="#94a3b8" text-anchor="end">VARCHAR</text>
<line x1="41" y1="716" x2="269" y2="716" stroke="#94a3b8" stroke-width="0.3" opacity="0.4"/>
<text x="52" y="733" font-size="12" fill="#1e293b">expires_at</text>
<text x="260" y="733" font-size="9" fill="#94a3b8" text-anchor="end">DATETIME</text>
<line x1="41" y1="740" x2="269" y2="740" stroke="#94a3b8" stroke-width="0.3" opacity="0.4"/>
<rect x="41" y="740" width="228" height="24" fill="#f8fafc"/>
<text x="52" y="757" font-size="12" fill="#1e293b">used</text>
<text x="260" y="757" font-size="9" fill="#94a3b8" text-anchor="end">BOOLEAN</text>
<line x1="41" y1="764" x2="269" y2="764" stroke="#94a3b8" stroke-width="0.3" opacity="0.4"/>
<text x="52" y="781" font-size="12" fill="#1e293b">created_at</text>
<text x="260" y="781" font-size="9" fill="#94a3b8" text-anchor="end">DATETIME</text>
<line x1="41" y1="788" x2="269" y2="788" stroke="#94a3b8" stroke-width="0.3" opacity="0.4"/>
<rect x="41" y="788" width="228" height="24" fill="#f8fafc"/>
<text x="52" y="805" font-size="12" fill="#1e293b">user_id</text>
<text x="260" y="805" font-size="9" fill="#94a3b8" text-anchor="end">INTEGER</text>
<rect x="107" y="792" width="24" height="15" rx="3" fill="#ede9fe"/>
<text x="119" y="803" font-size="9" font-weight="bold" fill="#7c3aed" text-anchor="middle">FK</text>
<path d="M 40 802 Q 40 812 50 812 L 260 812 Q 270 812 270 802" fill="none" stroke="#94a3b8" stroke-width="1"/>
<rect x="573" y="433" width="230" height="132" rx="10" fill="#cbd5e1" opacity="0.35"/>
<rect x="570" y="430" width="230" height="132" rx="10" fill="#ffffff" stroke="#94a3b8" stroke-width="1"/>
<path d="M 580 430 L 790 430 Q 800 430 800 440 L 800 466 L 570 466 L 570 440 Q 570 430 580 430 Z" fill="#dcfce7"/>
<text x="582" y="454" font-size="13" font-weight="bold" fill="#1e293b">cart_item</text>
<line x1="570" y1="466" x2="800" y2="466" stroke="#94a3b8" stroke-width="0.8"/>
<rect x="571" y="466" width="228" height="24" fill="#fefce8"/>
<text x="582" y="483" font-size="12" fill="#1e293b">id</text>
<text x="790" y="483" font-size="9" fill="#94a3b8" text-anchor="end">INTEGER</text>
<rect x="602" y="470" width="24" height="15" rx="3" fill="#fef3c7"/>
<text x="614" y="481" font-size="9" font-weight="bold" fill="#d97706" text-anchor="middle">PK</text>
<line x1="571" y1="490" x2="799" y2="490" stroke="#94a3b8" stroke-width="0.3" opacity="0.4"/>
<rect x="571" y="490" width="228" height="24" fill="#f8fafc"/>
<text x="582" y="507" font-size="12" fill="#1e293b">quantity</text>
<text x="790" y="507" font-size="9" fill="#94a3b8" text-anchor="end">INTEGER</text>
<line x1="571" y1="514" x2="799" y2="514" stroke="#94a3b8" stroke-width="0.3" opacity="0.4"/>
<text x="582" y="531" font-size="12" fill="#1e293b">user_id</text>
<text x="790" y="531" font-size="9" fill="#94a3b8" text-anchor="end">INTEGER</text>
<rect x="637" y="518" width="24" height="15" rx="3" fill="#ede9fe"/>
<text x="649" y="529" font-size="9" font-weight="bold" fill="#7c3aed" text-anchor="middle">FK</text>
<line x1="571" y1="538" x2="799" y2="538" stroke="#94a3b8" stroke-width="0.3" opacity="0.4"/>
<rect x="571" y="538" width="228" height="24" fill="#f8fafc"/>
<text x="582" y="555" font-size="12" fill="#1e293b">product_id</text>
<text x="790" y="555" font-size="9" fill="#94a3b8" text-anchor="end">INTEGER</text>
<rect x="658" y="542" width="24" height="15" rx="3" fill="#ede9fe"/>
<text x="670" y="553" font-size="9" font-weight="bold" fill="#7c3aed" text-anchor="middle">FK</text>
<path d="M 570 552 Q 570 562 580 562 L 790 562 Q 800 562 800 552" fill="none" stroke="#94a3b8" stroke-width="1"/>
<rect x="313" y="543" width="230" height="156" rx="10" fill="#cbd5e1" opacity="0.35"/>
<rect x="310" y="540" width="230" height="156" rx="10" fill="#ffffff" stroke="#94a3b8" stroke-width="1"/>
<path d="M 320 540 L 530 540 Q 540 540 540 550 L 540 576 L 310 576 L 310 550 Q 310 540 320 540 Z" fill="#dcfce7"/>
<text x="322" y="564" font-size="13" font-weight="bold" fill="#1e293b">order</text>
<line x1="310" y1="576" x2="540" y2="576" stroke="#94a3b8" stroke-width="0.8"/>
<rect x="311" y="576" width="228" height="24" fill="#fefce8"/>
<text x="322" y="593" font-size="12" fill="#1e293b">id</text>
<text x="530" y="593" font-size="9" fill="#94a3b8" text-anchor="end">INTEGER</text>
<rect x="342" y="580" width="24" height="15" rx="3" fill="#fef3c7"/>
<text x="354" y="591" font-size="9" font-weight="bold" fill="#d97706" text-anchor="middle">PK</text>
<line x1="311" y1="600" x2="539" y2="600" stroke="#94a3b8" stroke-width="0.3" opacity="0.4"/>
<rect x="311" y="600" width="228" height="24" fill="#f8fafc"/>
<text x="322" y="617" font-size="12" fill="#1e293b">total_amount</text>
<text x="530" y="617" font-size="9" fill="#94a3b8" text-anchor="end">DECIMAL(10,2)</text>
<line x1="311" y1="624" x2="539" y2="624" stroke="#94a3b8" stroke-width="0.3" opacity="0.4"/>
<text x="322" y="641" font-size="12" fill="#1e293b">payment_method</text>
<text x="530" y="641" font-size="9" fill="#94a3b8" text-anchor="end">VARCHAR</text>
<line x1="311" y1="648" x2="539" y2="648" stroke="#94a3b8" stroke-width="0.3" opacity="0.4"/>
<rect x="311" y="648" width="228" height="24" fill="#f8fafc"/>
<text x="322" y="665" font-size="12" fill="#1e293b">created_at</text>
<text x="530" y="665" font-size="9" fill="#94a3b8" text-anchor="end">DATETIME</text>
<line x1="311" y1="672" x2="539" y2="672" stroke="#94a3b8" stroke-width="0.3" opacity="0.4"/>
<text x="322" y="689" font-size="12" fill="#1e293b">user_id</text>
<text x="530" y="689" font-size="9" fill="#94a3b8" text-anchor="end">INTEGER</text>
<rect x="377" y="676" width="24" height="15" rx="3" fill="#ede9fe"/>
<text x="389" y="687" font-size="9" font-weight="bold" fill="#7c3aed" text-anchor="middle">FK</text>
<path d="M 310 686 Q 310 696 320 696 L 530 696 Q 540 696 540 686" fill="none" stroke="#94a3b8" stroke-width="1"/>
<rect x="573" y="623" width="230" height="156" rx="10" fill="#cbd5e1" opacity="0.35"/>
<rect x="570" y="620" width="230" height="156" rx="10" fill="#ffffff" stroke="#94a3b8" stroke-width="1"/>
<path d="M 580 620 L 790 620 Q 800 620 800 630 L 800 656 L 570 656 L 570 630 Q 570 620 580 620 Z" fill="#dcfce7"/>
<text x="582" y="644" font-size="13" font-weight="bold" fill="#1e293b">order_item</text>
<line x1="570" y1="656" x2="800" y2="656" stroke="#94a3b8" stroke-width="0.8"/>
<rect x="571" y="656" width="228" height="24" fill="#fefce8"/>
<text x="582" y="673" font-size="12" fill="#1e293b">id</text>
<text x="790" y="673" font-size="9" fill="#94a3b8" text-anchor="end">INTEGER</text>
<rect x="602" y="660" width="24" height="15" rx="3" fill="#fef3c7"/>
<text x="614" y="671" font-size="9" font-weight="bold" fill="#d97706" text-anchor="middle">PK</text>
<line x1="571" y1="680" x2="799" y2="680" stroke="#94a3b8" stroke-width="0.3" opacity="0.4"/>
<rect x="571" y="680" width="228" height="24" fill="#f8fafc"/>
<text x="582" y="697" font-size="12" fill="#1e293b">quantity</text>
<text x="790" y="697" font-size="9" fill="#94a3b8" text-anchor="end">INTEGER</text>
<line x1="571" y1="704" x2="799" y2="704" stroke="#94a3b8" stroke-width="0.3" opacity="0.4"/>
<text x="582" y="721" font-size="12" fill="#1e293b">price_at_purchase</text>
<text x="790" y="721" font-size="9" fill="#94a3b8" text-anchor="end">DECIMAL(10,2)</text>
<rect x="707" y="708" width="17" height="15" rx="3" fill="#fee2e2"/>
<text x="715" y="719" font-size="9" font-weight="bold" fill="#dc2626" text-anchor="middle">★</text>
<line x1="571" y1="728" x2="799" y2="728" stroke="#94a3b8" stroke-width="0.3" opacity="0.4"/>
<rect x="571" y="728" width="228" height="24" fill="#f8fafc"/>
<text x="582" y="745" font-size="12" fill="#1e293b">order_id</text>
<text x="790" y="745" font-size="9" fill="#94a3b8" text-anchor="end">INTEGER</text>
<rect x="644" y="732" width="24" height="15" rx="3" fill="#ede9fe"/>
<text x="656" y="743" font-size="9" font-weight="bold" fill="#7c3aed" text-anchor="middle">FK</text>
<line x1="571" y1="752" x2="799" y2="752" stroke="#94a3b8" stroke-width="0.3" opacity="0.4"/>
<text x="582" y="769" font-size="12" fill="#1e293b">product_id</text>
<text x="790" y="769" font-size="9" fill="#94a3b8" text-anchor="end">INTEGER</text>
<rect x="658" y="756" width="24" height="15" rx="3" fill="#ede9fe"/>
<text x="670" y="767" font-size="9" font-weight="bold" fill="#7c3aed" text-anchor="middle">FK</text>
<path d="M 570 766 Q 570 776 580 776 L 790 776 Q 800 776 800 766" fill="none" stroke="#94a3b8" stroke-width="1"/>
<text x="312" y="74" font-size="10" font-weight="bold" fill="#2563eb" text-anchor="middle">TAXONOMY CHAIN  →</text>
<text x="42" y="374" font-size="10" font-weight="bold" fill="#d97706">USER &amp; AUTH</text>
<text x="572" y="424" font-size="10" font-weight="bold" fill="#16a34a">COMMERCE</text>
<rect x="1095" y="400" width="250" height="260" rx="10" fill="#ffffff" stroke="#94a3b8" stroke-width="1"/>
<rect x="1095" y="400" width="250" height="32" rx="10" fill="#1e293b"/>
<path d="M 1095 422 L 1095 432 L 1345 432 L 1345 422 Z" fill="#1e293b"/>
<text x="1107" y="422" font-size="12" font-weight="bold" fill="#f1f5f9">Legend</text>
<rect x="1109" y="443" width="24" height="16" rx="3" fill="#fef3c7"/>
<text x="1121" y="456" font-size="9" font-weight="bold" fill="#d97706" text-anchor="middle">PK</text>
<text x="1141" y="456" font-size="11" fill="#475569">Primary key</text>
<rect x="1109" y="471" width="24" height="16" rx="3" fill="#ede9fe"/>
<text x="1121" y="484" font-size="9" font-weight="bold" fill="#7c3aed" text-anchor="middle">FK</text>
<text x="1141" y="484" font-size="11" fill="#475569">Foreign key</text>
<rect x="1109" y="499" width="24" height="16" rx="3" fill="#ecfdf5"/>
<text x="1121" y="512" font-size="9" font-weight="bold" fill="#059669" text-anchor="middle">UK</text>
<text x="1141" y="512" font-size="11" fill="#475569">Unique constraint</text>
<rect x="1109" y="527" width="17" height="16" rx="3" fill="#fee2e2"/>
<text x="1117" y="540" font-size="9" font-weight="bold" fill="#dc2626" text-anchor="middle">★</text>
<text x="1134" y="540" font-size="11" fill="#475569">price_at_purchase snapshot</text>
<line x1="1109" y1="570" x2="1155" y2="570" stroke="#8b5cf6" stroke-width="1.5" opacity="0.55"/>
<text x="1163" y="575" font-size="11" fill="#475569">CASCADE on delete</text>
<line x1="1109" y1="598" x2="1155" y2="598" stroke="#ef4444" stroke-width="1.5" stroke-dasharray="5 3" opacity="0.55"/>
<text x="1163" y="603" font-size="11" fill="#475569">RESTRICT on delete</text>
<rect x="1109" y="620" width="12" height="12" rx="2" fill="#dbeafe"/>
<text x="1127" y="631" font-size="11" fill="#475569">Taxonomy entities</text>
<rect x="1109" y="638" width="12" height="12" rx="2" fill="#fef9c3"/>
<text x="1127" y="649" font-size="11" fill="#475569">User / Auth entities</text>
<rect x="1109" y="656" width="12" height="12" rx="2" fill="#dcfce7"/>
<text x="1127" y="667" font-size="11" fill="#475569">Commerce entities</text>
</svg>